<svg xmlns="http://www.w3.org/2000/svg" width="10" height="10" viewBox="0 0 256 256">
    <circle cx="128" cy="128" r="128" fill="#000000" />

    <g fill="#ffffff" fill-rule="nonzero" stroke="none" stroke-width="1" stroke-linecap="butt"
        stroke-linejoin="miter" stroke-miterlimit="10" stroke-dasharray="" stroke-dashoffset="0"
        font-family="none" font-weight="none" font-size="none" text-anchor="none"
        style="mix-blend-mode: normal">
        <g transform="scale(10.66667,10.66667)">
            <path
                d="M11.13477,1.01563c-0.26304,-0.01269 -0.528,-0.00667 -0.79687,0.01758c-2.22441,0.2007 -4.0017,1.7608 -4.72852,3.78711c-1.71233,0.35654 -3.1721,1.4837 -3.9375,3.13672c-0.93789,2.02626 -0.47459,4.34393 0.91602,5.98633c-0.54761,1.66188 -0.30311,3.49222 0.74414,4.98047c1.28618,1.82589 3.52649,2.58282 5.64453,2.19922c1.16501,1.30516 2.87196,2.00816 4.68555,1.84375c2.22436,-0.20069 4.00167,-1.76087 4.72852,-3.78711c1.71233,-0.35652 3.1721,-1.48454 3.9375,-3.13672c0.93787,-2.02623 0.47453,-4.34199 -0.91602,-5.98437c0.54836,-1.66236 0.30238,-3.49364 -0.74609,-4.98242c-1.28618,-1.82589 -3.52454,-2.58282 -5.64258,-2.19922c-0.9923,-1.11168 -2.37751,-1.78843 -3.88867,-1.86133zM11.02539,2.51367c0.89558,0.03514 1.72802,0.36002 2.4043,0.90625c-0.11306,0.05604 -0.23154,0.09454 -0.3418,0.1582l-3.51953,2.03125c-0.612,0.353 -0.992,1.00394 -1,1.71094l-0.05273,4.91797l-1.27539,-0.75781c-0.304,-0.18 -0.49023,-0.50833 -0.49023,-0.86133v-3.83398c0,-2.136 1.55759,-4.04291 3.68359,-4.25391c0.19937,-0.01975 0.39689,-0.02523 0.5918,-0.01758zM16.125,4.25586c1.27358,0.00756 2.51484,0.5693 3.29297,1.6543c0.65289,0.90943 0.89227,1.99184 0.72852,3.03711c-0.10521,-0.07002 -0.19816,-0.15303 -0.30859,-0.2168l-3.51953,-2.03125c-0.612,-0.354 -1.36447,-0.35677 -1.98047,-0.00977l-4.28516,2.41406l0.01758,-1.48633c0.004,-0.353 0.194,-0.67652 0.5,-0.85352l3.32031,-1.91602c0.69375,-0.4005 1.47022,-0.59633 2.23438,-0.5918zM5.2832,6.47266c-0.00797,0.12565 -0.0332,0.24797 -0.0332,0.375v4.06055c0,0.707 0.37247,1.36266 0.98047,1.72266l4.23633,2.50586l-1.29492,0.72656c-0.308,0.173 -0.68423,0.17114 -0.99023,-0.00586l-3.32227,-1.91797c-1.85,-1.068 -2.7218,-3.37236 -1.8418,-5.31836c0.46198,-1.02041 1.27879,-1.76751 2.26562,-2.14844zM15.32617,8.00781c0.17075,0.001 0.34114,0.04627 0.49414,0.13477l3.32031,1.91797c1.85,1.068 2.72375,3.37236 1.84375,5.31836c-0.46209,1.02065 -1.28043,1.7676 -2.26758,2.14844c0.008,-0.12587 0.0332,-0.24774 0.0332,-0.375v-4.0625c0,-0.707 -0.37247,-1.3607 -0.98047,-1.7207l-4.23242,-2.50586l1.29297,-0.72656c0.154,-0.0865 0.32534,-0.12991 0.49609,-0.12891zM12.02539,9.71289l1.9707,1.16797l-0.02734,2.28711l-1.99414,1.12109l-1.9707,-1.16992l0.02734,-2.28711zM15.48242,11.76367l1.27734,0.75586c0.304,0.18 0.49023,0.50833 0.49023,0.86133v3.83399c0,2.136 -1.55759,4.04291 -3.68359,4.25391c-1.11547,0.1105 -2.17264,-0.22356 -2.99609,-0.88867c0.11306,-0.05604 0.23154,-0.09454 0.3418,-0.1582l3.51758,-2.03125c0.612,-0.353 0.992,-1.00394 1,-1.71094zM13.94727,14.89844l-0.01758,1.48437c-0.004,0.353 -0.194,0.67652 -0.5,0.85352l-3.32031,1.91602c-1.85,1.068 -4.28234,0.6735 -5.52734,-1.0625c-0.65289,-0.90943 -0.89227,-1.99184 -0.72852,-3.03711c0.10521,0.07003 0.19816,0.15303 0.30859,0.2168l3.51953,2.03125c0.612,0.354 1.36447,0.35677 1.98047,0.00977z"></path>
        </g>
    </g>
</svg>