<svg fill="#000000" width="75px" height="75px" viewBox="0 0 256.00 256.00" id="Flat"
    xmlns="http://www.w3.org/2000/svg">
    <g id="SVGRepo_bgCarrier" stroke-width="0">
        <rect x="0" y="0" width="256.00" height="256.00" rx="128" fill="#fff" strokewidth="0"></rect>
    </g>
    <g id="SVGRepo_tracerCarrier" stroke-linecap="round" stroke-linejoin="round"></g>
    <g id="SVGRepo_iconCarrier">
        <path
            d="M116,72v88a48.05436,48.05436,0,0,1-48,48,8,8,0,0,1,0-16,32.036,32.036,0,0,0,32-32v-8H40a16.01833,16.01833,0,0,1-16-16V72A16.01833,16.01833,0,0,1,40,56h60A16.01833,16.01833,0,0,1,116,72ZM216,56H156a16.01833,16.01833,0,0,0-16,16v64a16.01833,16.01833,0,0,0,16,16h60v8a32.036,32.036,0,0,1-32,32,8,8,0,0,0,0,16,48.05436,48.05436,0,0,0,48-48V72A16.01833,16.01833,0,0,0,216,56Z"></path>
    </g>
</svg>