<svg width="16" height="16" viewBox="0 0 16 16" xmlns="http://www.w3.org/2000/svg">
    <g fill="#4C5F66" fill-rule="nonzero">
        <path d="M8.969 4.673a1.093 1.093 0 1 1-2.187 0 1.093 1.093 0 0 1 2.187 0M8.785 7.669v3.605a.91.91 0 1 1-1.82 0V7.67a.91.91 0 0 1 1.82 0z"/>
        <path d="M7.875 0a7.875 7.875 0 1 0 0 15.75 7.875 7.875 0 0 0 0-15.75zm4.579 12.454a6.478 6.478 0 0 1-9.196.038 6.474 6.474 0 0 1 .038-9.196 6.478 6.478 0 0 1 9.196-.038 6.474 6.474 0 0 1-.038 9.196z"/>
        <path d="M7.875 0a7.875 7.875 0 1 0 0 15.75 7.875 7.875 0 0 0 0-15.75zm4.579 12.454a6.478 6.478 0 0 1-9.196.038 6.474 6.474 0 0 1 .038-9.196 6.478 6.478 0 0 1 9.196-.038 6.474 6.474 0 0 1-.038 9.196z"/>
    </g>
</svg>
